<svg width="20" height="20" viewBox="0 0 20 20" fill="none" xmlns="http://www.w3.org/2000/svg">
<path d="M14.1667 6.66658C14.1667 4.3654 12.3012 2.49992 10 2.49992C7.69881 2.49992 5.83333 4.3654 5.83333 6.66658C5.83333 8.96777 7.69881 10.8333 10 10.8333C12.3012 10.8333 14.1667 8.96777 14.1667 6.66658ZM12.2811 12.0369C11.5804 12.3349 10.8095 12.4999 10 12.4999C9.19025 12.4999 8.41899 12.3351 7.7181 12.0369L6.8457 16.949L9.00472 15.3319L9.00553 15.3311C9.29353 15.1161 9.64381 14.9999 10.0033 14.9999C10.3625 15 10.7123 15.1162 11.0002 15.3311L11.0018 15.3328L13.1535 16.9473L12.2811 12.0369ZM15.8333 6.66658C15.8333 8.43364 15.0464 10.0158 13.8053 11.0855L14.9805 17.7009L14.9821 17.7074H14.9813C15.0237 17.9584 14.9885 18.2168 14.8804 18.4472C14.7722 18.6775 14.5967 18.8696 14.3766 18.9973C14.1566 19.125 13.9027 19.1821 13.6491 19.1617C13.4073 19.1422 13.1766 19.0526 12.985 18.9045L10.0024 16.6666L7.01579 18.9045L7.01497 18.9029C6.82356 19.0508 6.59414 19.1414 6.35254 19.1609C6.09916 19.1814 5.8458 19.1238 5.62581 18.9965C5.40582 18.8691 5.22965 18.678 5.12126 18.448C5.0129 18.2181 4.977 17.9606 5.01872 17.7099L5.02034 17.7009L6.19466 11.0855C4.95356 10.0158 4.16667 8.43364 4.16667 6.66658C4.16667 3.44492 6.77834 0.833252 10 0.833252C13.2217 0.833252 15.8333 3.44492 15.8333 6.66658Z" fill="#585858"/>
</svg>
