<svg width="20" height="20" viewBox="0 0 20 20" fill="none" xmlns="http://www.w3.org/2000/svg">
<path d="M10.1693 1.11776C10.5636 1.14451 10.9464 1.26505 11.2866 1.46932L11.2874 1.46851L13.7874 2.96916L13.9225 3.05623C14.2312 3.26982 14.4886 3.55052 14.6745 3.87817C14.8868 4.25255 14.999 4.6758 15 5.1062V8.2784L17.9541 10.0525L18.0892 10.1396C18.3979 10.3531 18.6552 10.6339 18.8411 10.9615C19.0535 11.3359 19.1657 11.7591 19.1667 12.1895V14.8938C19.1657 15.3243 19.0535 15.7474 18.8411 16.1218C18.6287 16.4962 18.3231 16.8092 17.9541 17.0308V17.0317L15.4541 18.5315L15.4533 18.5307C15.0942 18.7463 14.6874 18.8666 14.27 18.8839C14.2361 18.8881 14.2017 18.892 14.1667 18.892C14.1313 18.892 14.0967 18.8881 14.0625 18.8839C13.6454 18.8665 13.2389 18.7462 12.88 18.5307V18.5315L10 16.8046L7.11996 18.5315L7.11914 18.5307C6.76018 18.7461 6.35388 18.8666 5.93669 18.8839C5.90276 18.8881 5.8684 18.892 5.83333 18.892C5.798 18.892 5.76335 18.8881 5.72917 18.8839C5.31184 18.8665 4.90489 18.7464 4.5459 18.5307L2.0459 17.0317V17.0308C1.67693 16.8092 1.37127 16.4962 1.15885 16.1218C0.946466 15.7474 0.834317 15.3243 0.833334 14.8938V12.1895L0.839031 12.0292C0.863988 11.6546 0.972932 11.2893 1.15885 10.9615C1.37127 10.5872 1.67695 10.2742 2.0459 10.0525L5 8.2784V5.1062C5.00101 4.6758 5.11316 4.25255 5.32552 3.87817C5.53794 3.50383 5.84362 3.19082 6.21257 2.96916L8.71257 1.46851V1.46932C9.1014 1.23571 9.54639 1.11206 10 1.11206L10.1693 1.11776ZM2.5 14.8897L2.50732 14.9972C2.5213 15.103 2.55526 15.2056 2.60824 15.2991C2.67892 15.4237 2.78092 15.5279 2.90365 15.6018L5 16.8599V14.2208L2.5 12.7177V14.8897ZM15 14.2208V16.8599L17.0964 15.6018C17.2191 15.5279 17.3211 15.4237 17.3918 15.2991C17.4622 15.1747 17.4994 15.0343 17.5 14.8914V12.7177L15 14.2208ZM6.66667 14.2216V16.8591L9.16667 15.3601V12.7218L6.66667 14.2216ZM10.8333 15.3601L13.3333 16.8591V14.2216L10.8333 12.7218V15.3601ZM3.2902 11.2488L5.83415 12.7779L8.37972 11.2504L5.83252 9.72127L3.2902 11.2488ZM11.6195 11.2504L14.165 12.7779L16.709 11.2488L14.1667 9.72127L11.6195 11.2504ZM6.66667 8.2784L9.16667 9.77824V7.13745L6.66667 5.63436V8.2784ZM10.8333 7.13745V9.77824L13.3333 8.2784V5.63436L10.8333 7.13745ZM10 2.77873C9.84892 2.77873 9.70067 2.81979 9.57113 2.89754L9.57031 2.89836L7.45687 4.16545L10 5.69377L12.5423 4.16545L10.4297 2.89836L10.4289 2.89754C10.2993 2.81979 10.1511 2.77873 10 2.77873Z" fill="#585858"/>
</svg>
