<svg width="20" height="20" viewBox="0 0 20 20" fill="none" xmlns="http://www.w3.org/2000/svg">
<g clip-path="url(#clip0_1340_4828)">
<path d="M10 0.834961C10.4375 0.834961 10.8668 0.950548 11.2459 1.16862L11.2467 1.16781L13.9144 2.69206C14.0878 2.72706 14.2496 2.81617 14.3717 2.95329L17.0801 4.50114L17.0833 4.50358L17.2225 4.58984C17.471 4.75594 17.6861 4.96615 17.8605 5.20833C17.9119 5.25926 17.9584 5.31685 17.9964 5.38249C18.0278 5.43677 18.0516 5.49351 18.0697 5.55094C18.2423 5.89652 18.3329 6.27817 18.3333 6.66585V13.3341C18.3329 13.7725 18.2174 14.203 17.998 14.5825C17.7787 14.9621 17.463 15.2772 17.0833 15.4964L17.0801 15.4989L14.3685 17.0475C14.2505 17.1787 14.0926 17.2723 13.9128 17.3079L11.2467 18.8322L11.2459 18.8314C10.9831 18.9825 10.696 19.0828 10.3988 19.1309C10.2802 19.1957 10.1446 19.2334 10 19.2334C9.85513 19.2334 9.71911 19.1959 9.60042 19.1309C9.30327 19.0827 9.01605 18.9826 8.75325 18.8314V18.8322L6.08642 17.3079C5.90674 17.2721 5.74853 17.1787 5.6307 17.0475L2.91992 15.4989L2.91667 15.4964C2.53703 15.2772 2.22133 14.9621 2.00195 14.5825C1.78265 14.203 1.66712 13.7725 1.66667 13.3341V6.66585L1.67236 6.50146C1.69448 6.17069 1.78213 5.84757 1.93034 5.55094C1.94839 5.49351 1.97218 5.43677 2.00358 5.38249C2.04156 5.31685 2.08809 5.25926 2.13949 5.20833C2.3457 4.922 2.60946 4.68097 2.91667 4.50358L2.91992 4.50114L5.62744 2.95329C5.74944 2.81615 5.91149 2.7272 6.0848 2.69206L8.75325 1.16781V1.16862C9.13257 0.95032 9.56231 0.834961 10 0.834961ZM3.33333 9.51823L6.66667 11.4453C6.9243 11.5942 7.08325 11.8688 7.08333 12.1663V15.957L9.16667 17.1476V10.4891L3.33333 7.11426V9.51823ZM10.8333 10.4891V17.1476L12.9167 15.957V12.1663C12.9168 11.8688 13.0757 11.5942 13.3333 11.4453L16.6667 9.51823V7.11426L10.8333 10.4891ZM3.33333 13.3325L3.34066 13.4416C3.35501 13.5493 3.39013 13.6537 3.44482 13.7484C3.51731 13.8738 3.62168 13.9781 3.74674 14.0511L5.41667 15.0049V12.6473L3.33333 11.4437V13.3325ZM14.5833 12.6473V15.0049L16.2533 14.0511C16.3783 13.9781 16.4827 13.8738 16.5552 13.7484C16.628 13.6222 16.6664 13.479 16.6667 13.3333V11.4437L14.5833 12.6473ZM10.4167 6.39648C10.1588 6.54539 9.84119 6.54539 9.58333 6.39648L6.29069 4.49381L4.1984 5.68929L10 9.04541L15.8008 5.68929L13.7085 4.49381L10.4167 6.39648ZM10 2.50163C9.85374 2.50163 9.71 2.54 9.58333 2.61312L9.58008 2.61475L7.96549 3.53678L10 4.71273L12.0337 3.53678L10.4199 2.61475L10.4167 2.61312C10.29 2.54 10.1463 2.50163 10 2.50163Z" fill="#585858"/>
</g>
<defs>
<clipPath id="clip0_1340_4828">
<rect width="20" height="20" fill="white"/>
</clipPath>
</defs>
</svg>
