<svg width="20" height="20" viewBox="0 0 20 20" fill="none" xmlns="http://www.w3.org/2000/svg">
<g clip-path="url(#clip0_1340_4856)">
<path d="M16.6667 12.1028C16.3356 12.2725 15.9664 12.4254 15.5672 12.5585C14.0523 13.0635 12.0501 13.3333 10 13.3333C7.94989 13.3333 5.94771 13.0635 4.43278 12.5585C4.03356 12.4254 3.66438 12.2725 3.33333 12.1028V15.8349C3.33352 15.8361 3.33387 15.8385 3.33496 15.8422C3.33745 15.8506 3.34444 15.868 3.36019 15.8943C3.39333 15.9496 3.46239 16.0352 3.59375 16.1409C3.86134 16.3561 4.30858 16.5934 4.96012 16.8106C6.25824 17.2433 8.07186 17.4999 10 17.4999C11.9281 17.4999 13.7418 17.2433 15.0399 16.8106C15.6914 16.5934 16.1387 16.3561 16.4062 16.1409C16.5376 16.0352 16.6067 15.9496 16.6398 15.8943C16.6556 15.868 16.6625 15.8506 16.665 15.8422C16.6661 15.8385 16.6665 15.8361 16.6667 15.8349V12.1028ZM16.6667 6.27026C16.3322 6.44136 15.9617 6.59367 15.5672 6.72518C14.1042 7.21285 12.1357 7.49992 10 7.49992C7.86429 7.49992 5.89578 7.21285 4.43278 6.72518C4.0383 6.59367 3.6678 6.44136 3.33333 6.27026V10.0015C3.33352 10.0027 3.33387 10.0052 3.33496 10.0089C3.33745 10.0172 3.34444 10.0346 3.36019 10.061C3.39333 10.1162 3.46239 10.2018 3.59375 10.3075C3.86134 10.5228 4.30858 10.7601 4.96012 10.9773C6.25824 11.41 8.07186 11.6666 10 11.6666C11.9281 11.6666 13.7418 11.41 15.0399 10.9773C15.6914 10.7601 16.1387 10.5228 16.4062 10.3075C16.5376 10.2018 16.6067 10.1162 16.6398 10.061C16.6556 10.0346 16.6625 10.0172 16.665 10.0089C16.6661 10.0052 16.6665 10.0027 16.6667 10.0015V6.27026ZM16.6642 4.15356C16.6614 4.14423 16.654 4.12619 16.6374 4.09904C16.602 4.04146 16.5298 3.9548 16.3949 3.84839C16.1197 3.63155 15.6699 3.39924 15.0399 3.18921C13.7884 2.77205 12.0064 2.49992 10 2.49992C7.99357 2.49992 6.21159 2.77205 4.96012 3.18921C4.33005 3.39924 3.88029 3.63155 3.60514 3.84839C3.47016 3.9548 3.39798 4.04146 3.36263 4.09904C3.34598 4.12619 3.33864 4.14423 3.33577 4.15356C3.33315 4.16219 3.33333 4.16598 3.33333 4.16659C3.33333 4.16719 3.33315 4.17098 3.33577 4.17961C3.33864 4.18894 3.34598 4.20698 3.36263 4.23413C3.39798 4.29172 3.47016 4.37837 3.60514 4.48478C3.88029 4.70162 4.33005 4.93394 4.96012 5.14396C6.21159 5.56112 7.99357 5.83325 10 5.83325C12.0064 5.83325 13.7884 5.56112 15.0399 5.14396C15.6699 4.93394 16.1197 4.70162 16.3949 4.48478C16.5298 4.37837 16.602 4.29172 16.6374 4.23413C16.654 4.20698 16.6614 4.18894 16.6642 4.17961C16.6669 4.17098 16.6667 4.16719 16.6667 4.16659C16.6667 4.16598 16.6669 4.16219 16.6642 4.15356ZM18.3333 15.8333C18.3333 16.521 17.9226 17.0595 17.4512 17.4389C16.9721 17.8244 16.3218 18.1403 15.5672 18.3918C14.0523 18.8968 12.0501 19.1666 10 19.1666C7.94989 19.1666 5.94771 18.8968 4.43278 18.3918C3.67822 18.1403 3.02792 17.8244 2.54883 17.4389C2.10678 17.0832 1.71828 16.5876 1.67155 15.9602L1.66667 15.8333V4.16659C1.66667 3.45674 2.09883 2.91292 2.57324 2.53898C3.05707 2.15768 3.70575 1.85036 4.43278 1.60799C5.89578 1.12032 7.86429 0.833252 10 0.833252C12.1357 0.833252 14.1042 1.12032 15.5672 1.60799C16.2943 1.85036 16.9429 2.15768 17.4268 2.53898C17.9012 2.91292 18.3333 3.45674 18.3333 4.16659V15.8333Z" fill="#00599A"/>
</g>
<defs>
<clipPath id="clip0_1340_4856">
<rect width="20" height="20" fill="white"/>
</clipPath>
</defs>
</svg>
