<svg width="20" height="20" viewBox="0 0 20 20" fill="none" xmlns="http://www.w3.org/2000/svg">
<path d="M2.96061 10.9213C3.57364 10.6148 4.269 10.5778 4.85189 10.8692C5.45459 11.1706 5.83333 11.7767 5.83333 12.5001C5.83333 12.9802 5.59823 13.3685 5.40609 13.6248C5.261 13.8182 5.08486 14.0034 4.92432 14.1667H5C5.46024 14.1667 5.83333 14.5398 5.83333 15.0001C5.83333 15.4603 5.46024 15.8334 5 15.8334H3.33333C2.8731 15.8334 2.5 15.4603 2.5 15.0001C2.5 14.5199 2.73511 14.1316 2.92725 13.8754C3.12597 13.6104 3.38003 13.3583 3.57747 13.1609C3.79664 12.9417 3.95931 12.7771 4.07308 12.6254C4.132 12.5469 4.15538 12.4996 4.16423 12.4797C4.16147 12.4272 4.15014 12.4016 4.1447 12.3927C4.1382 12.3821 4.12792 12.3708 4.10645 12.3601C4.06434 12.3391 3.92637 12.302 3.70606 12.4122C3.29441 12.618 2.79372 12.4511 2.58789 12.0395C2.38207 11.6278 2.54896 11.1271 2.96061 10.9213ZM17.5 14.1667C17.9602 14.1667 18.3333 14.5398 18.3333 15.0001C18.3333 15.4603 17.9602 15.8334 17.5 15.8334H8.33333C7.8731 15.8334 7.5 15.4603 7.5 15.0001C7.5 14.5398 7.8731 14.1667 8.33333 14.1667H17.5ZM17.5 9.16675C17.9602 9.16675 18.3333 9.53984 18.3333 10.0001C18.3333 10.4603 17.9602 10.8334 17.5 10.8334H8.33333C7.8731 10.8334 7.5 10.4603 7.5 10.0001C7.5 9.53984 7.8731 9.16675 8.33333 9.16675H17.5ZM4.16667 4.16675L4.25212 4.17082C4.67222 4.21359 5 4.56868 5 5.00008V7.50008C5.46024 7.50008 5.83333 7.87318 5.83333 8.33342C5.83333 8.79365 5.46024 9.16675 5 9.16675H3.33333C2.8731 9.16675 2.5 8.79365 2.5 8.33342C2.5 7.87318 2.8731 7.50008 3.33333 7.50008V5.83341C2.8731 5.83341 2.5 5.46032 2.5 5.00008C2.5 4.53984 2.8731 4.16675 3.33333 4.16675H4.16667ZM17.5 4.16675C17.9602 4.16675 18.3333 4.53984 18.3333 5.00008C18.3333 5.46032 17.9602 5.83341 17.5 5.83341H8.33333C7.8731 5.83341 7.5 5.46032 7.5 5.00008C7.5 4.53984 7.8731 4.16675 8.33333 4.16675H17.5Z" fill="#585858"/>
</svg>
