<svg width="23" height="20" viewBox="0 0 23 20" fill="none" xmlns="http://www.w3.org/2000/svg">
<path d="M3.33333 14.167V16.667H7.5V14.167H3.33333ZM12.5 10.8337V16.667H16.6667V10.8337H12.5ZM3.33333 3.33366V9.16699H7.5V3.33366H3.33333ZM12.5 3.33366V5.83366H16.6667V3.33366H12.5ZM9.16667 16.667C9.16667 17.5875 8.42047 18.3337 7.5 18.3337H3.33333C2.41286 18.3337 1.66667 17.5875 1.66667 16.667V14.167C1.66667 13.2465 2.41286 12.5003 3.33333 12.5003H7.5C8.42047 12.5003 9.16667 13.2465 9.16667 14.167V16.667ZM18.3333 16.667C18.3333 17.5875 17.5871 18.3337 16.6667 18.3337H12.5C11.5795 18.3337 10.8333 17.5875 10.8333 16.667V10.8337C10.8333 9.91318 11.5795 9.16699 12.5 9.16699H16.6667C17.5871 9.16699 18.3333 9.91318 18.3333 10.8337V16.667ZM9.16667 9.16699C9.16667 10.0875 8.42047 10.8337 7.5 10.8337H3.33333C2.41286 10.8337 1.66667 10.0875 1.66667 9.16699V3.33366C1.66667 2.41318 2.41286 1.66699 3.33333 1.66699H7.5C8.42047 1.66699 9.16667 2.41318 9.16667 3.33366V9.16699ZM18.3333 5.83366C18.3333 6.75413 17.5871 7.50033 16.6667 7.50033H12.5C11.5795 7.50033 10.8333 6.75413 10.8333 5.83366V3.33366C10.8333 2.41318 11.5795 1.66699 12.5 1.66699H16.6667C17.5871 1.66699 18.3333 2.41318 18.3333 3.33366V5.83366Z" fill="#585858"/>
</svg>
