<svg width="30" height="30" viewBox="0 0 30 30" fill="none" xmlns="http://www.w3.org/2000/svg">
<path d="M5.95954 3.01898V26.4138C5.95954 27.5822 5.44013 28.506 4.40131 29.0494C3.38983 29.5929 2.37835 29.5657 1.3942 28.9408C0.41006 28.343 0 27.4463 0 26.3051V3.1005C0 1.44302 1.01148 0.24747 2.59705 0.0300971C4.26463 -0.214448 5.85019 1.06262 5.95954 2.72009V3.01898Z" fill="#00599A"/>
<path d="M17.8917 19.1462C17.8917 20.7765 16.5249 22.0807 14.8573 22.0536C13.2171 22.0536 11.9595 20.7493 11.9595 19.0919V10.2882C11.9595 8.65793 13.2171 7.38086 14.83 7.38086C16.4429 7.38086 17.8644 8.60358 17.8917 10.2339V19.1462Z" fill="#F04E3E"/>
<path d="M29.8786 22.477V26.3354C29.8786 28.1016 28.5664 29.433 26.8715 29.433C25.1766 29.433 23.8917 28.0744 23.8917 26.3082V3.04927C23.8917 1.82654 24.4385 0.875532 25.5593 0.332098C26.6255 -0.184164 27.6916 -0.102648 28.6758 0.630987C29.5506 1.28311 29.8786 2.17977 29.8786 3.23947V22.5042V22.477Z" fill="#00599A"/>
</svg>
