<svg width="38" height="38" viewBox="0 0 38 38" fill="none" xmlns="http://www.w3.org/2000/svg">
<path d="M0 22.8478V15.5811L18.2792 22.1277V29.329L0 22.8478Z" fill="#3378BE"/>
<path d="M0 31.2931V24.0264L18.2792 30.573V37.7743L0 31.2931Z" fill="#30489F"/>
<path d="M37.6683 22.8478V15.5811L19.3891 22.1277V29.329L37.6683 22.8478Z" fill="#3378BE"/>
<path d="M37.6683 31.2931V24.0264L19.3891 30.573V37.7743L37.6683 31.2931Z" fill="#30489F"/>
<path d="M0 15.581L14.2317 10.4746L14.4275 13.3551L18.2792 12.0458V16.563L10.0536 19.1816" fill="#40AAE3"/>
<path d="M37.6683 15.5808L19.3891 9.03418V16.5628L27.3536 19.3124" fill="#40AAE3"/>
<path d="M14.6887 6.28454V10.0816L19.0626 8.5104V4.77881L14.6887 6.28454Z" fill="#40AAE3"/>
<path d="M12.9913 1.50573V5.23732L17.3653 3.73159V0L12.9913 1.50573Z" fill="#40AAE3"/>
<path d="M7.24642 7.07018V10.8018L11.6204 9.23057V5.56445L7.24642 7.07018Z" fill="#30489F"/>
</svg>
