<svg width="16" height="16" viewBox="0 0 16 16" fill="none" xmlns="http://www.w3.org/2000/svg">
<path d="M13.6167 4.04325C13.4392 4.05659 13.2775 4.13825 13.1617 4.27325L8.00002 10.2699L2.83836 4.27325C2.59836 3.99492 2.17669 3.96325 1.89836 4.20325C1.62002 4.44325 1.58836 4.86492 1.82836 5.14325L7.49419 11.7266C7.62086 11.8741 7.80502 11.9583 7.99919 11.9583C8.19336 11.9583 8.37752 11.8741 8.50419 11.7266L14.1709 5.14325C14.275 5.02242 14.3325 4.86825 14.3325 4.70825C14.3325 4.51409 14.2484 4.32992 14.1009 4.20242C13.9659 4.08658 13.7934 4.02992 13.6159 4.04325L13.6167 4.04325Z" fill="#585858"/>
</svg>
