<svg width="16" height="16" viewBox="0 0 16 16" fill="none" xmlns="http://www.w3.org/2000/svg">
<path d="M9.33289 14.5C9.27539 14.5 9.21872 14.49 9.16289 14.47L6.49622 13.5075C6.29789 13.4358 6.16622 13.2475 6.16622 13.0375V8.4875L1.92039 2.2825C1.81539 2.12917 1.80456 1.93083 1.89039 1.76667C1.97706 1.6025 2.14706 1.5 2.33289 1.5H13.6662C13.8521 1.5 14.0221 1.6025 14.1087 1.76667C14.1954 1.93083 14.1837 2.12917 14.0787 2.2825L9.83289 8.48833V14C9.83289 14.1625 9.75372 14.3158 9.62039 14.4092C9.53539 14.4692 9.43456 14.5 9.33289 14.5ZM7.16622 12.6867L8.83289 13.2883V8.33333C8.83289 8.2325 8.86372 8.13417 8.92039 8.05083L12.7187 2.5H3.28122L7.07956 8.05083C7.13622 8.13417 7.16706 8.2325 7.16706 8.33333V12.6867H7.16622Z" fill="#585858"/>
</svg>
