<svg width="16" height="16" viewBox="0 0 16 16" fill="none" xmlns="http://www.w3.org/2000/svg">
<path d="M13.6166 4.04398C13.4391 4.05732 13.2774 4.13898 13.1616 4.27398L7.9999 10.2707L2.83823 4.27398C2.59823 3.99565 2.17657 3.96398 1.89823 4.20398C1.6199 4.44398 1.58823 4.86565 1.82823 5.14398L7.49407 11.7273C7.62073 11.8748 7.8049 11.959 7.99907 11.959C8.19323 11.959 8.3774 11.8748 8.50407 11.7273L14.1707 5.14398C14.2749 5.02315 14.3324 4.86898 14.3324 4.70898C14.3324 4.51482 14.2482 4.33065 14.1007 4.20315C13.9657 4.08732 13.7932 4.03065 13.6157 4.04398L13.6166 4.04398Z" fill="#585858"/>
</svg>
