<svg width="173" height="40" viewBox="0 0 173 40" fill="none" xmlns="http://www.w3.org/2000/svg">
<path d="M1.76264 23.9607V16.694L20.0419 23.2406V30.4419L1.76264 23.9607Z" fill="#3378BE"/>
<path d="M1.76264 32.4059V25.1392L20.0419 31.6858V38.8871L1.76264 32.4059Z" fill="#30489F"/>
<path d="M39.4309 23.9607V16.694L21.1517 23.2406V30.4419L39.4309 23.9607Z" fill="#3378BE"/>
<path d="M39.4309 32.4059V25.1392L21.1517 31.6858V38.8871L39.4309 32.4059Z" fill="#30489F"/>
<path d="M1.76264 16.6939L15.9943 11.5875L16.1902 14.468L20.0419 13.1587V17.6759L11.8162 20.2946" fill="#40AAE3"/>
<path d="M39.4309 16.694L21.1517 10.1473V17.676L29.1162 20.4256" fill="#40AAE3"/>
<path d="M16.4513 7.3977V11.1948L20.8253 9.62355V5.89197L16.4513 7.3977Z" fill="#40AAE3"/>
<path d="M14.754 2.61864V6.35023L19.1279 4.8445V1.11292L14.754 2.61864Z" fill="#40AAE3"/>
<path d="M9.00906 8.18334V11.9149L13.383 10.3437V6.67761L9.00906 8.18334Z" fill="#30489F"/>
<path d="M52.6181 12.3077H55.1641V27.6924H52.6181V12.3077Z" fill="#30489F"/>
<path d="M76.1853 12.3077H78.7313V27.6924H76.7728L69.5264 17.2832V27.6924H66.9804V12.3077H68.8736L76.12 22.7824V12.3077H76.1853Z" fill="#30489F"/>
<path d="M94.3993 27.6924L89.046 12.3077H91.7879L95.8355 24.6154L99.9483 12.3077H102.69L97.337 27.6924H94.334H94.3993Z" fill="#30489F"/>
<path d="M115.682 25.2701H122.471V27.6924H113.135V12.3077H122.34V14.73H115.682V18.7235H121.818V21.1457H115.682V25.2701Z" fill="#30489F"/>
<path d="M146.234 25.6629C144.667 27.2341 142.839 27.9542 140.62 27.9542C138.4 27.9542 136.507 27.1686 135.005 25.6629C133.438 24.0917 132.72 22.2586 132.72 20.0328C132.72 17.8069 133.504 15.9084 135.005 14.4027C136.507 12.8969 138.4 12.1113 140.62 12.1113C142.839 12.1113 144.732 12.8969 146.234 14.4027C147.801 15.9738 148.519 17.8069 148.519 20.0328C148.519 22.2586 147.735 24.1572 146.234 25.6629ZM136.703 23.9608C137.747 25.0082 139.053 25.532 140.554 25.532C142.056 25.532 143.362 25.0082 144.406 23.9608C145.451 22.9133 145.973 21.604 145.973 20.0328C145.973 18.4616 145.451 17.1522 144.406 16.1048C143.362 15.0573 142.056 14.5336 140.554 14.5336C139.053 14.5336 137.747 15.0573 136.703 16.1048C135.658 17.1522 135.136 18.4616 135.136 20.0328C135.136 21.604 135.658 22.9133 136.703 23.9608Z" fill="#30489F"/>
<path d="M168.757 12.3077H171.303V27.6924H169.344L162.098 17.2832V27.6924H159.552V12.3077H161.445L168.691 22.7824V12.3077H168.757Z" fill="#30489F"/>
</svg>
