<svg width="23" height="20" viewBox="0 0 23 20" fill="none" xmlns="http://www.w3.org/2000/svg">
<path d="M16.6667 5.00001C16.6667 4.07953 15.9205 3.33334 15 3.33334C14.0795 3.33334 13.3333 4.07953 13.3333 5.00001C13.3333 5.92048 14.0795 6.66667 15 6.66667C15.9205 6.66667 16.6667 5.92048 16.6667 5.00001ZM3.33333 15C3.33333 15.9205 4.07953 16.6667 5 16.6667C5.92048 16.6667 6.66667 15.9205 6.66667 15C6.66667 14.0795 5.92048 13.3333 5 13.3333C4.07953 13.3333 3.33333 14.0795 3.33333 15ZM18.3333 5.00001C18.3333 6.56566 17.2536 7.87784 15.7983 8.23568C15.6264 10.1761 14.7811 12.0043 13.3927 13.3927C12.0043 14.7811 10.1761 15.6264 8.23568 15.7983C7.87784 17.2536 6.56566 18.3333 5 18.3333C3.15905 18.3333 1.66667 16.841 1.66667 15C1.66667 13.4468 2.72897 12.1417 4.16667 11.7717V2.50001C4.16667 2.03977 4.53976 1.66667 5 1.66667C5.46024 1.66667 5.83333 2.03977 5.83333 2.50001V11.7717C6.99128 12.0697 7.90494 12.9745 8.21696 14.1268C9.72138 13.9641 11.1343 13.2944 12.2144 12.2144C13.2944 11.1343 13.9641 9.72139 14.1268 8.21696C12.7095 7.83317 11.6667 6.53873 11.6667 5.00001C11.6667 3.15906 13.1591 1.66667 15 1.66667C16.841 1.66667 18.3333 3.15906 18.3333 5.00001Z" fill="#585858"/>
</svg>
