<svg width="200" height="66" viewBox="0 0 200 66" fill="none" xmlns="http://www.w3.org/2000/svg">
<path d="M76.4352 16.7106V33.3669C76.4352 33.9375 76.2438 34.1277 75.6698 34.182C75.2324 34.182 74.7676 34.182 74.3302 34.182C73.7288 34.182 73.4008 33.8016 73.3188 33.231V33.0952C73.4008 29.7802 73.1274 26.4381 73.4828 23.1231C73.5648 22.3895 73.6741 21.683 73.8108 20.9494C73.8382 20.8136 73.8655 20.6505 73.8928 20.5147C73.8928 20.4603 73.9202 20.406 73.8928 20.406C73.8382 20.406 73.8382 20.406 73.8108 20.4603C72.6627 23.6122 70.8311 26.4109 69.2182 29.3183C68.7808 30.0791 67.4959 30.4595 66.7031 30.0248C66.5391 29.9432 66.4297 29.8074 66.3477 29.6443C65.1449 27.5521 63.8327 25.4871 62.7665 23.3405C62.3838 22.5797 62.1104 21.7646 61.8644 20.9494C61.8097 20.7592 61.7277 20.569 61.5637 20.406C61.6457 20.9494 61.7277 21.4928 61.8097 22.0363C61.9738 23.0416 62.0558 24.047 62.0558 25.0523V33.0136C62.0558 35.6493 61.7004 34.182 60.9076 34.182H59.6501C59.24 34.182 59.0487 33.9103 59.0213 33.5299V16.9552C59.0213 16.0857 59.1854 15.8955 60.0875 15.8955C62.2471 15.8955 61.8644 15.7868 62.8212 17.4443C64.3521 20.1343 65.883 22.8514 67.4139 25.5414C67.4959 25.6773 67.5232 25.9218 67.7146 25.9218C67.906 25.9218 67.9333 25.6773 68.0153 25.5414C69.6829 22.6069 71.3505 19.6452 72.9907 16.6835C73.3188 16.1129 73.7015 15.8411 74.3576 15.8955C74.795 15.8955 75.2324 15.8955 75.6424 15.8955C76.0525 15.8955 76.4079 16.14 76.4079 16.6835H76.4352V16.7106Z" fill="#00599A"/>
<path d="M41.1427 32.905V36.7634C41.1427 38.5295 39.8305 39.8609 38.1356 39.8609C36.4407 39.8609 35.1558 38.5024 35.1558 36.7362V13.4772C35.1558 12.2545 35.7026 11.3035 36.8234 10.7601C37.8896 10.2438 38.9557 10.3253 39.9399 11.059C40.8147 11.7111 41.1427 12.6078 41.1427 13.6674V32.9322V32.905Z" fill="#00599A"/>
<path d="M17.4139 13.4501V36.8449C17.4139 38.0133 16.8945 38.9372 15.8557 39.4806C14.8442 40.024 13.8327 39.9969 12.8486 39.3719C11.8644 38.7741 11.4543 37.8775 11.4543 36.7363V13.5316C11.4543 11.8742 12.4658 10.6786 14.0514 10.4612C15.719 10.2167 17.3045 11.4938 17.4139 13.1512V13.4501Z" fill="#00599A"/>
<path d="M186.851 33.8288C186.632 34.1005 186.331 34.2092 186.003 34.2092C185.128 34.2092 184.254 34.1549 183.379 33.9375C181.629 33.5299 180.7 32.3887 180.426 30.6769C180.29 29.9433 180.235 29.1824 180.235 28.4216V24.1557C180.235 23.8025 180.153 23.6394 179.77 23.6394H174.084C173.729 23.6394 173.619 23.7481 173.619 24.1013V33.3125C173.619 34.019 173.455 34.2092 172.717 34.2092H171.268C170.804 34.2092 170.585 33.9375 170.558 33.5027V24.21C170.558 23.7481 170.421 23.6123 169.984 23.6666C169.71 23.6666 169.41 23.6666 169.109 23.6666C168.562 23.6666 168.234 23.2862 168.207 22.7699V21.8189C168.207 21.3027 168.562 20.9223 169.109 20.8951H170.12C170.448 20.8951 170.558 20.8407 170.558 20.4875C170.558 19.9169 170.612 19.3191 170.776 18.7485C171.268 16.765 172.69 15.5694 174.904 15.2706C175.396 15.2162 175.888 15.1619 176.381 15.1619C176.873 15.1619 177.31 15.5151 177.337 16.0585V16.3031C177.337 17.716 177.201 17.879 175.806 17.9877C174.139 18.1236 173.592 19.0202 173.592 20.5962C173.592 22.1722 173.647 20.8407 173.838 20.8407H179.907C180.18 20.8407 180.208 20.6777 180.208 20.4603V18.8572C180.208 18.1236 180.563 17.7703 181.301 17.7432H182.34C182.914 17.7432 183.242 18.1236 183.242 18.6942V20.2973C183.242 20.6777 183.324 20.8407 183.762 20.8136C184.5 20.8136 185.238 20.8136 185.949 20.8136C186.659 20.8136 186.987 21.1396 186.987 21.8733C186.987 23.5036 186.905 23.5851 185.265 23.5851H183.598C183.379 23.5851 183.242 23.6394 183.242 23.9111C183.297 25.786 183.106 27.6337 183.324 29.5085C183.461 30.6497 184.062 31.166 185.21 31.2747C185.484 31.2747 185.785 31.2747 186.058 31.329C186.359 31.329 186.605 31.4649 186.796 31.7094C187.069 32.0898 187.042 33.4484 186.796 33.8016H186.878L186.851 33.8288Z" fill="#00599A"/>
<path d="M122.581 25.5958C122.553 23.1775 121.132 21.3842 118.781 20.7321C117.332 20.3517 115.856 20.3517 114.379 20.7321C112.192 21.2755 110.88 22.6884 110.607 24.9165C110.416 26.6827 110.388 28.5032 110.607 30.2693C110.853 32.3072 112.028 33.693 114.051 34.2636C115.856 34.7798 117.687 34.7255 119.464 34.1549C120.64 33.7745 121.542 33.068 122.143 32.0083C122.444 31.4921 122.335 31.1388 121.843 30.8399C121.515 30.6497 121.159 30.4595 120.831 30.2965C120.23 29.9976 119.956 30.052 119.574 30.5954C119.218 31.0845 118.781 31.4649 118.207 31.6823C117.195 32.0627 116.156 32.117 115.118 31.791C114.161 31.4921 113.641 30.7856 113.559 29.7802C113.559 29.5357 113.559 29.3183 113.532 29.0738C113.477 28.639 113.614 28.5032 114.079 28.5032C115.254 28.5032 116.43 28.5032 117.633 28.5032C118.945 28.5032 120.257 28.5032 121.569 28.5032C122.307 28.5032 122.581 28.1499 122.581 27.4163V25.6502V25.5958ZM119.191 26.1664H113.969C113.641 26.1664 113.559 26.0577 113.559 25.7588C113.559 24.1829 114.954 22.933 116.676 22.9602C118.234 22.9602 119.574 24.3731 119.519 25.8947C119.519 26.1664 119.382 26.1936 119.163 26.1936H119.191V26.1664Z" fill="#00599A"/>
<path d="M90.7873 28.6663C90.7326 27.4436 90.8967 25.9491 90.7053 24.4819C90.4593 22.6342 89.5025 21.33 87.6709 20.7865C86.0853 20.3246 84.4724 20.3518 82.9142 20.7865C81.6293 21.1398 80.6178 21.8734 79.9617 23.0146C79.5517 23.7211 79.6884 24.0471 80.4538 24.3732C80.7545 24.509 81.0826 24.6177 81.3833 24.7264C81.9574 24.9438 82.1214 24.9166 82.4768 24.4004C82.9688 23.6667 83.6796 23.2591 84.5271 23.1505C86.6047 22.9331 87.9169 23.5037 87.7802 25.8948V25.9491C87.8349 26.3295 87.6709 26.3839 87.3155 26.3567C85.8666 26.248 84.4177 26.2209 82.9688 26.4111C80.7545 26.7099 79.6337 27.7153 79.4697 29.8075C79.251 32.6877 80.3171 33.9376 82.8595 34.3724C84.3357 34.6169 85.8393 34.5897 87.3428 34.4267C88.2176 34.3452 89.0651 34.1822 89.8852 33.8561C90.5413 33.6116 90.8147 33.1496 90.8147 32.4703V28.612V28.6663H90.7873ZM87.7255 29.9434V31.4378C87.7255 31.7095 87.6435 31.8454 87.3701 31.8997C86.1126 32.1171 84.8551 32.1986 83.6249 31.9541C82.8321 31.7911 82.4768 31.2748 82.4494 30.4325C82.4494 29.563 82.7775 29.0467 83.5703 28.8293C84.1443 28.6663 84.7458 28.6391 85.3198 28.6663C86.0033 28.6663 86.6594 28.7478 87.3155 28.775C87.6162 28.775 87.7255 28.9109 87.7255 29.2097V29.9706V29.9434Z" fill="#00599A"/>
<path d="M166.457 24.7534C166.266 22.8786 165.2 21.5743 163.395 20.9222C161.618 20.2972 159.787 20.2701 157.982 20.8135C156.042 21.3841 154.893 22.6884 154.62 24.6991C154.483 25.6229 154.62 26.5739 154.565 27.1173C154.565 28.2585 154.565 29.0465 154.565 29.8073C154.675 32.0354 155.878 33.5842 158.037 34.2091C159.513 34.6439 161.017 34.6711 162.52 34.345C164.954 33.8016 166.293 32.3615 166.457 29.8888C166.566 28.177 166.594 26.438 166.457 24.7262V24.7534ZM163.423 29.8345C163.122 31.2203 161.81 32.2256 160.388 32.1441C158.912 32.0626 157.736 30.9214 157.627 29.4813C157.545 28.2314 157.545 26.9543 157.627 25.7044C157.736 24.1284 159.021 22.9601 160.552 22.9601C162.083 22.9601 163.395 24.1828 163.477 25.7859C163.477 26.3837 163.477 26.9815 163.477 27.8781C163.477 28.3401 163.559 29.1009 163.423 29.8617V29.8345Z" fill="#00599A"/>
<path d="M151.859 30.677C151.695 32.3073 150.82 33.4485 149.289 34.0191C147.157 34.8071 145.025 34.7799 142.892 33.9376C141.771 33.4757 140.979 32.6606 140.514 31.5465C140.241 30.8944 140.405 30.5683 141.061 30.351C141.498 30.2151 141.935 30.0792 142.373 29.9434C142.728 29.8347 143.002 29.9434 143.138 30.2694C143.712 31.7367 144.97 31.8997 146.282 31.8997C147.594 31.8997 147.403 31.8454 147.922 31.6552C148.578 31.4107 148.934 30.9487 148.934 30.351C148.934 29.7532 148.606 29.3184 147.895 29.1011C146.884 28.775 145.817 28.775 144.779 28.6391C144.15 28.5305 143.521 28.4218 142.92 28.1772C141.252 27.5251 140.405 26.1937 140.541 24.4275C140.733 22.2266 142.1 20.8952 144.478 20.5692C144.97 20.5148 145.462 20.4333 145.954 20.4605C147.512 20.4605 149.043 20.705 150.301 21.7375C150.82 22.1451 151.203 22.6614 151.504 23.2592C151.75 23.7754 151.64 24.1015 151.121 24.346C150.656 24.5634 150.191 24.7264 149.699 24.9166C149.317 25.0797 149.071 24.9166 148.825 24.6449C147.786 23.232 146.118 22.7429 144.451 23.3407C143.822 23.558 143.521 23.9656 143.521 24.5634C143.521 25.1612 143.822 25.5687 144.451 25.7861C145.243 26.0578 146.091 26.085 146.911 26.1665C147.622 26.248 148.305 26.3567 148.989 26.5469C151.093 27.1447 152.05 28.5305 151.832 30.7042H151.859V30.677Z" fill="#00599A"/>
<path d="M137.288 26.1393V32.8779C137.288 35.1331 137.015 34.2093 135.921 34.2093H135.429C134.554 34.2093 134.226 33.8832 134.226 33.0409V25.297C134.035 23.9927 133.27 23.3134 131.848 23.2319C131.001 23.1776 130.153 23.2863 129.333 23.4493C128.95 23.5308 128.786 23.6938 128.786 24.1014V32.9865C128.786 33.8832 128.486 34.1821 127.583 34.1821H126.955C126.052 34.1821 125.724 33.856 125.724 32.9322V23.0145C125.724 21.9005 125.916 21.6016 126.982 21.2212C129.142 20.4876 131.356 20.1887 133.625 20.6234C135.785 21.031 137.042 22.5254 137.206 24.7264C137.233 25.1883 137.261 25.6502 137.261 26.1121L137.288 26.1393Z" fill="#00599A"/>
<path d="M29.2783 29.59C29.2783 31.2203 27.9114 32.5246 26.2439 32.4974C24.6036 32.4974 23.3461 31.1932 23.3461 29.5357V20.7321C23.3461 19.1018 24.6036 17.8247 26.2165 17.8247C27.8294 17.8247 29.251 19.0474 29.2783 20.6777V29.59Z" fill="#F04E3E"/>
<path d="M107.053 16.4933V32.8507C107.053 33.9104 106.78 34.1549 105.686 34.2093C104.374 34.2093 103.964 34.0734 103.991 32.5246C104.046 29.889 103.991 27.2805 103.991 24.6449V16.3303C103.991 15.4337 104.292 15.1348 105.194 15.1348C106.096 15.1348 105.741 15.1348 106.014 15.1348C106.616 15.1348 106.998 15.488 107.026 16.0858V16.4662H107.053V16.4933Z" fill="#00599A"/>
<path d="M99.754 23.5851C98.9885 23.5851 98.2504 23.6395 97.5123 23.7753C97.0749 23.8568 96.9109 24.0199 96.9109 24.5089V32.905C96.9109 33.9103 96.6375 34.1821 95.5987 34.2092C94.1225 34.2092 93.8218 34.0734 93.8491 32.4974C93.8764 31.0301 93.8491 29.5629 93.8491 28.0956V23.1775C93.8491 22.2537 94.0405 21.9548 94.9426 21.6287C96.7195 20.9766 98.5785 20.8408 100.437 20.8951C100.902 20.8951 101.203 21.1668 101.285 21.6559C101.285 21.7374 101.312 21.8461 101.312 21.9276C101.394 23.3677 101.148 23.6395 99.6993 23.6123H99.754V23.5851Z" fill="#00599A"/>
<path d="M73.8928 20.5146C73.8928 20.5146 73.8382 20.5146 73.8382 20.4603C73.8382 20.4059 73.8655 20.3788 73.9202 20.4059V20.5146H73.8928Z" fill="#00599A"/>
<path d="M66.0197 50.4035H63.2586L62.7392 51.7893H61.8644L64.1607 45.5398H65.1176L67.3866 51.7893H66.5118L65.9923 50.4035H66.0197ZM65.801 49.7242L64.6528 46.5451L63.5047 49.7242H65.801Z" fill="#121212"/>
<path d="M70.8311 47.958C71.0498 47.5776 71.3231 47.2787 71.6785 47.0613C72.0339 46.844 72.444 46.7353 72.8814 46.7353C73.3188 46.7353 73.6195 46.8168 73.9749 47.007C74.3029 47.1972 74.5489 47.4146 74.7403 47.7135V45.105H75.5878V51.7892H74.7403V50.8654C74.5763 51.1643 74.3302 51.4088 74.0022 51.599C73.6741 51.7892 73.3188 51.8707 72.8814 51.8707C72.444 51.8707 72.0339 51.762 71.6785 51.5447C71.3231 51.3273 71.0224 51.0284 70.8311 50.6208C70.6124 50.2404 70.5303 49.7785 70.5303 49.2894C70.5303 48.8003 70.6397 48.3384 70.8311 47.958ZM74.4943 48.3384C74.3302 48.0667 74.1389 47.8493 73.8928 47.7135C73.6468 47.5776 73.3461 47.4961 73.0454 47.4961C72.7447 47.4961 72.444 47.5776 72.1979 47.7135C71.9519 47.8493 71.7332 48.0667 71.5965 48.3384C71.4325 48.6101 71.3778 48.9362 71.3778 49.3166C71.3778 49.697 71.4598 50.0231 71.5965 50.2948C71.7605 50.5665 71.9519 50.7839 72.1979 50.9469C72.444 51.0827 72.7447 51.1643 73.0454 51.1643C73.3461 51.1643 73.6468 51.0827 73.8928 50.9469C74.1389 50.811 74.3576 50.5937 74.4943 50.2948C74.6583 50.0231 74.713 49.697 74.713 49.3166C74.713 48.9362 74.631 48.6101 74.4943 48.3384Z" fill="#121212"/>
<path d="M76.982 45.893C76.8726 45.7843 76.8179 45.6484 76.8179 45.4854C76.8179 45.3224 76.8726 45.1865 76.982 45.0778C77.0913 44.9691 77.228 44.9148 77.392 44.9148C77.556 44.9148 77.6654 44.9691 77.7747 45.0778C77.8841 45.1865 77.9388 45.3224 77.9388 45.4854C77.9388 45.6484 77.8841 45.7843 77.7747 45.893C77.6654 46.0017 77.5287 46.056 77.392 46.056C77.2553 46.056 77.0913 46.0017 76.982 45.893ZM77.8021 46.844V51.7892H76.982V46.844H77.8021Z" fill="#121212"/>
<path d="M81.0552 51.0284L82.5861 46.844H83.4609L81.52 51.7892H80.5632L78.6222 46.844H79.5243L81.0826 51.0284H81.0552Z" fill="#121212"/>
<path d="M84.3084 45.893C84.199 45.7843 84.1443 45.6484 84.1443 45.4854C84.1443 45.3224 84.199 45.1865 84.3084 45.0778C84.4177 44.9691 84.5544 44.9148 84.7184 44.9148C84.8825 44.9148 84.9918 44.9691 85.1011 45.0778C85.2105 45.1865 85.2652 45.3224 85.2652 45.4854C85.2652 45.6484 85.2105 45.7843 85.1011 45.893C84.9918 46.0017 84.8551 46.056 84.7184 46.056C84.5817 46.056 84.4177 46.0017 84.3084 45.893ZM85.1285 46.844V51.7892H84.3084V46.844H85.1285Z" fill="#121212"/>
<path d="M87.2608 51.6807C86.9601 51.5448 86.7141 51.3818 86.55 51.1373C86.386 50.8927 86.2767 50.6482 86.2493 50.3493H87.0968C87.0968 50.5938 87.2335 50.784 87.4522 50.9471C87.6709 51.1101 87.9442 51.1916 88.2723 51.1916C88.6003 51.1916 88.8464 51.1101 89.0104 50.9742C89.2018 50.8384 89.2838 50.6482 89.2838 50.458C89.2838 50.2678 89.1744 50.0776 88.9831 49.9689C88.7917 49.8602 88.491 49.7515 88.0809 49.67C87.6982 49.5613 87.3975 49.4798 87.1788 49.3711C86.9328 49.2624 86.7414 49.1266 86.5774 48.9364C86.4133 48.7462 86.3313 48.4744 86.3313 48.1756C86.3313 47.8767 86.4133 47.6865 86.55 47.4691C86.7141 47.2517 86.9054 47.0887 87.2061 46.98C87.4795 46.8441 87.8075 46.7898 88.1629 46.7898C88.7097 46.7898 89.1471 46.9257 89.5025 47.1974C89.8305 47.4691 90.0219 47.8495 90.0492 48.3386H89.2291C89.2291 48.0669 89.1197 47.8767 88.9284 47.7136C88.737 47.5506 88.491 47.4691 88.1629 47.4691C87.8349 47.4691 87.6435 47.5234 87.4522 47.6593C87.2881 47.7951 87.1788 47.9582 87.1788 48.1484C87.1788 48.3386 87.2335 48.4473 87.3428 48.556C87.4522 48.6646 87.5889 48.7462 87.7529 48.8005C87.9169 48.8548 88.1356 48.9364 88.409 49.0179C88.7644 49.1266 89.0651 49.2081 89.2838 49.2896C89.5025 49.3711 89.6938 49.5341 89.8579 49.6972C90.0219 49.8602 90.1039 50.1319 90.1039 50.4308C90.1039 50.7025 90.0219 50.9471 89.8852 51.1644C89.7485 51.3818 89.5298 51.5448 89.2564 51.6807C88.9831 51.8166 88.655 51.8709 88.2996 51.8709C87.9442 51.8709 87.5889 51.8166 87.2608 51.6807Z" fill="#121212"/>
<path d="M91.2794 45.893C91.17 45.7843 91.1154 45.6484 91.1154 45.4854C91.1154 45.3224 91.17 45.1865 91.2794 45.0778C91.3887 44.9691 91.5254 44.9148 91.6895 44.9148C91.8535 44.9148 91.9628 44.9691 92.0722 45.0778C92.1815 45.1865 92.2362 45.3224 92.2362 45.4854C92.2362 45.6484 92.1815 45.7843 92.0722 45.893C91.9628 46.0017 91.8261 46.056 91.6895 46.056C91.5528 46.056 91.3887 46.0017 91.2794 45.893ZM92.0722 46.844V51.7892H91.2521V46.844H92.0722Z" fill="#121212"/>
<path d="M94.3958 51.5447C94.0131 51.3273 93.7124 51.0284 93.4937 50.648C93.275 50.2676 93.1657 49.8057 93.1657 49.2894C93.1657 48.7732 93.275 48.3384 93.4937 47.958C93.7124 47.5776 94.0131 47.2787 94.3958 47.0613C94.7786 46.844 95.216 46.7625 95.6807 46.7625C96.1454 46.7625 96.5828 46.8711 96.9656 47.0613C97.3483 47.2515 97.649 47.5776 97.8677 47.958C98.0864 48.3384 98.1957 48.8003 98.1957 49.2894C98.1957 49.7785 98.0864 50.2404 97.8677 50.648C97.649 51.0284 97.3209 51.3273 96.9382 51.5447C96.5555 51.762 96.1181 51.8707 95.6534 51.8707C95.1886 51.8707 94.7786 51.762 94.3958 51.5447ZM96.5008 50.9469C96.7742 50.811 96.9656 50.5937 97.1296 50.3219C97.2936 50.0502 97.3756 49.697 97.3756 49.3166C97.3756 48.9362 97.2936 48.583 97.1296 48.3112C96.9656 48.0395 96.7742 47.8221 96.5008 47.6863C96.2548 47.5504 95.9814 47.4961 95.6807 47.4961C95.38 47.4961 95.1066 47.5504 94.8606 47.6863C94.6145 47.8221 94.3958 48.0395 94.2592 48.3112C94.0951 48.583 94.0405 48.9362 94.0405 49.3166C94.0405 49.697 94.1225 50.0502 94.2592 50.3491C94.3958 50.6208 94.6145 50.8382 94.8606 50.9741C95.1066 51.1099 95.38 51.1643 95.6807 51.1643C95.9814 51.1643 96.2548 51.0827 96.5282 50.9469H96.5008Z" fill="#121212"/>
<path d="M103.198 47.306C103.581 47.6592 103.773 48.2026 103.773 48.8819V51.7893H102.952V48.9906C102.952 48.5015 102.816 48.1211 102.57 47.8494C102.324 47.5777 101.996 47.469 101.558 47.469C101.121 47.469 100.765 47.6048 100.519 47.8766C100.273 48.1483 100.137 48.5287 100.137 49.0449V51.7893H99.3166V46.844H100.137V47.5505C100.301 47.306 100.519 47.1158 100.793 46.9527C101.066 46.7897 101.394 46.7354 101.722 46.7354C102.324 46.7354 102.816 46.9256 103.198 47.2788V47.306Z" fill="#121212"/>
<path d="M108.447 51.5447C108.065 51.3273 107.764 51.0284 107.545 50.648C107.326 50.2676 107.217 49.8057 107.217 49.2894C107.217 48.7732 107.326 48.3384 107.545 47.958C107.764 47.5776 108.065 47.2787 108.447 47.0613C108.83 46.844 109.267 46.7625 109.732 46.7625C110.197 46.7625 110.634 46.8711 111.017 47.0613C111.4 47.2515 111.7 47.5776 111.919 47.958C112.138 48.3384 112.247 48.8003 112.247 49.2894C112.247 49.7785 112.138 50.2404 111.919 50.648C111.7 51.0284 111.372 51.3273 110.99 51.5447C110.607 51.762 110.169 51.8707 109.705 51.8707C109.24 51.8707 108.83 51.762 108.447 51.5447ZM110.525 50.9469C110.798 50.811 110.99 50.5937 111.154 50.3219C111.318 50.0502 111.4 49.697 111.4 49.3166C111.4 48.9362 111.318 48.583 111.154 48.3112C110.99 48.0395 110.798 47.8221 110.525 47.6863C110.279 47.5504 110.005 47.4961 109.705 47.4961C109.404 47.4961 109.131 47.5504 108.885 47.6863C108.639 47.8221 108.42 48.0395 108.283 48.3112C108.119 48.583 108.065 48.9362 108.065 49.3166C108.065 49.697 108.147 50.0502 108.283 50.3491C108.42 50.6208 108.639 50.8382 108.885 50.9741C109.131 51.1099 109.404 51.1643 109.705 51.1643C110.005 51.1643 110.279 51.0827 110.552 50.9469H110.525Z" fill="#121212"/>
<path d="M115.364 47.5233H114.325V51.7893H113.505V47.5233H112.849V46.8441H113.505V46.4908C113.505 45.9474 113.641 45.5398 113.942 45.2681C114.243 45.0236 114.68 44.8877 115.336 44.8877V45.567C114.981 45.567 114.708 45.6485 114.571 45.7844C114.434 45.9202 114.352 46.1648 114.352 46.4908V46.8441H115.391V47.5233H115.364Z" fill="#121212"/>
<path d="M122.171 51.7894L119.574 48.9092V51.7894H118.753V45.5127H119.574V48.4201L122.198 45.5127H123.237L120.366 48.6646L123.264 51.8165H122.171V51.7894Z" fill="#121212"/>
<path d="M125.014 46.1646V48.2569H127.31V48.9362H125.014V51.1099H127.583V51.7892H124.166V45.4854H127.583V46.1646H125.014Z" fill="#121212"/>
<path d="M132.176 51.7894L130.673 49.208H129.661V51.7894H128.841V45.5127H130.891C131.356 45.5127 131.766 45.5942 132.094 45.7572C132.422 45.9203 132.668 46.1376 132.832 46.4094C132.996 46.6811 133.078 47.0071 133.078 47.3604C133.078 47.7136 132.942 48.1755 132.695 48.5016C132.449 48.8276 132.067 49.045 131.575 49.1537L133.16 51.7894H132.176ZM129.661 48.5559H130.864C131.301 48.5559 131.657 48.4472 131.875 48.2299C132.094 48.0125 132.203 47.7136 132.203 47.3604C132.203 47.0071 132.094 46.7083 131.875 46.4909C131.657 46.2735 131.329 46.192 130.864 46.192H129.661V48.5831V48.5559Z" fill="#121212"/>
<path d="M139.338 51.7892H138.518L135.183 46.7896V51.7892H134.363V45.4854H135.183L138.518 50.4849V45.4854H139.338V51.7892Z" fill="#121212"/>
<path d="M143.166 47.9581C143.384 47.5777 143.658 47.2788 144.013 47.0614C144.369 46.844 144.779 46.7354 145.216 46.7354C145.653 46.7354 146.036 46.8169 146.364 47.0071C146.692 47.1973 146.911 47.4146 147.075 47.7135V46.8169H147.922V51.7621H147.075V50.8383C146.911 51.1372 146.665 51.3545 146.337 51.5447C146.009 51.7349 145.626 51.8165 145.216 51.8165C144.806 51.8165 144.369 51.7078 144.013 51.4904C143.658 51.273 143.384 50.9741 143.166 50.5666C142.947 50.1862 142.865 49.7242 142.865 49.2351C142.865 48.7461 142.974 48.2841 143.166 47.9037V47.9581ZM146.829 48.3385C146.665 48.0668 146.474 47.8494 146.227 47.7135C145.981 47.5777 145.681 47.4962 145.38 47.4962C145.079 47.4962 144.779 47.5777 144.533 47.7135C144.287 47.8494 144.068 48.0668 143.931 48.3385C143.767 48.6102 143.712 48.9363 143.712 49.3167C143.712 49.6971 143.794 50.0231 143.931 50.2948C144.095 50.5666 144.287 50.7839 144.533 50.947C144.779 51.0828 145.079 51.1643 145.38 51.1643C145.681 51.1643 145.981 51.0828 146.227 50.947C146.474 50.8111 146.692 50.5937 146.829 50.2948C146.993 50.0231 147.048 49.6971 147.048 49.3167C147.048 48.9363 146.966 48.6102 146.829 48.3385Z" fill="#121212"/>
<path d="M153.198 47.306C153.581 47.6592 153.773 48.2026 153.773 48.8819V51.7893H152.952V48.9906C152.952 48.5015 152.816 48.1211 152.57 47.8494C152.324 47.5777 151.996 47.469 151.558 47.469C151.121 47.469 150.765 47.6048 150.519 47.8766C150.273 48.1483 150.137 48.5287 150.137 49.0449V51.7893H149.317V46.844H150.137V47.5505C150.301 47.306 150.519 47.1158 150.793 46.9527C151.066 46.7897 151.394 46.7354 151.722 46.7354C152.324 46.7354 152.816 46.9256 153.198 47.2788V47.306Z" fill="#121212"/>
<path d="M155.112 47.958C155.331 47.5776 155.604 47.2787 155.96 47.0613C156.315 46.844 156.725 46.7353 157.162 46.7353C157.6 46.7353 157.901 46.8168 158.256 47.007C158.584 47.1972 158.83 47.4146 159.021 47.7135V45.105H159.869V51.7892H159.021V50.8654C158.857 51.1643 158.611 51.4088 158.283 51.599C157.955 51.7892 157.6 51.8707 157.162 51.8707C156.725 51.8707 156.315 51.762 155.96 51.5447C155.604 51.3273 155.303 51.0284 155.112 50.6208C154.893 50.2404 154.811 49.7785 154.811 49.2894C154.811 48.8003 154.921 48.3384 155.112 47.958ZM158.775 48.3384C158.611 48.0667 158.42 47.8493 158.174 47.7135C157.928 47.5776 157.627 47.4961 157.326 47.4961C157.026 47.4961 156.725 47.5776 156.479 47.7135C156.233 47.8493 156.014 48.0667 155.878 48.3384C155.714 48.6101 155.659 48.9362 155.659 49.3166C155.659 49.697 155.741 50.0231 155.878 50.2948C156.042 50.5665 156.233 50.7839 156.479 50.9469C156.725 51.0827 157.026 51.1643 157.326 51.1643C157.627 51.1643 157.928 51.0827 158.174 50.9469C158.42 50.811 158.639 50.5937 158.775 50.2948C158.939 50.0231 158.994 49.697 158.994 49.3166C158.994 48.9362 158.912 48.6101 158.775 48.3384Z" fill="#121212"/>
<path d="M164.543 51.6263C164.215 51.4904 163.942 51.273 163.778 51.0013C163.587 50.7296 163.505 50.4307 163.477 50.1047H164.352C164.379 50.4035 164.516 50.6481 164.707 50.8383C164.926 51.0285 165.227 51.1372 165.637 51.1372C166.047 51.1372 166.348 51.0285 166.566 50.8383C166.785 50.6481 166.894 50.4035 166.894 50.0775C166.894 49.7514 166.84 49.6427 166.703 49.4797C166.566 49.3167 166.402 49.208 166.211 49.1265C166.02 49.045 165.746 48.9634 165.391 48.8819C164.981 48.7732 164.625 48.6646 164.379 48.5559C164.133 48.4472 163.915 48.2842 163.723 48.0396C163.532 47.7951 163.45 47.4962 163.45 47.1158C163.45 46.7354 163.532 46.4636 163.723 46.1919C163.887 45.9202 164.133 45.73 164.461 45.567C164.789 45.404 165.145 45.3496 165.555 45.3496C166.156 45.3496 166.621 45.4855 167.004 45.7844C167.387 46.0832 167.605 46.4637 167.633 46.9527H166.73C166.703 46.7082 166.566 46.4908 166.348 46.3278C166.129 46.1376 165.828 46.0561 165.446 46.0561C165.063 46.0561 164.817 46.1376 164.598 46.3278C164.379 46.518 164.27 46.7625 164.27 47.0614C164.27 47.3603 164.325 47.469 164.461 47.632C164.598 47.7679 164.762 47.8766 164.954 47.9581C165.145 48.0396 165.418 48.1211 165.746 48.2026C166.156 48.3113 166.512 48.42 166.758 48.5287C167.004 48.6374 167.223 48.8004 167.414 49.045C167.605 49.2895 167.687 49.5884 167.687 49.996C167.687 50.4035 167.605 50.5937 167.441 50.8655C167.277 51.1372 167.031 51.3546 166.703 51.5176C166.375 51.6806 165.992 51.7621 165.582 51.7621C165.172 51.7621 164.789 51.6806 164.461 51.5448L164.543 51.6263Z" fill="#121212"/>
<path d="M169.902 51.5447C169.519 51.3273 169.218 51.0284 168.999 50.648C168.781 50.2676 168.671 49.8057 168.671 49.2894C168.671 48.7732 168.781 48.3384 168.999 47.958C169.218 47.5776 169.519 47.2787 169.902 47.0613C170.284 46.844 170.722 46.7625 171.186 46.7625C171.651 46.7625 172.089 46.8711 172.471 47.0613C172.854 47.2515 173.155 47.5776 173.373 47.958C173.592 48.3384 173.701 48.8003 173.701 49.2894C173.701 49.7785 173.592 50.2404 173.373 50.648C173.155 51.0284 172.827 51.3273 172.444 51.5447C172.061 51.762 171.624 51.8707 171.159 51.8707C170.694 51.8707 170.284 51.762 169.902 51.5447ZM172.007 50.9469C172.28 50.811 172.471 50.5937 172.635 50.3219C172.799 50.0502 172.881 49.697 172.881 49.3166C172.881 48.9362 172.799 48.583 172.635 48.3112C172.471 48.0395 172.28 47.8221 172.007 47.6863C171.761 47.5504 171.487 47.4961 171.186 47.4961C170.886 47.4961 170.612 47.5504 170.366 47.6863C170.12 47.8221 169.902 48.0395 169.765 48.3112C169.601 48.583 169.546 48.9362 169.546 49.3166C169.546 49.697 169.628 50.0502 169.765 50.3491C169.902 50.6208 170.12 50.8382 170.366 50.9741C170.612 51.1099 170.886 51.1643 171.186 51.1643C171.487 51.1643 171.761 51.0827 172.034 50.9469H172.007Z" fill="#121212"/>
<path d="M178.294 47.007C178.595 47.17 178.841 47.4146 179.005 47.7135C179.169 48.0395 179.251 48.4199 179.251 48.8818V51.7892H178.431V48.9905C178.431 48.5014 178.294 48.121 178.048 47.8493C177.802 47.5776 177.474 47.4689 177.037 47.4689C176.599 47.4689 176.244 47.6048 175.998 47.8765C175.752 48.1482 175.615 48.5286 175.615 49.0449V51.7892H174.795V45.105H175.615V47.5504C175.779 47.3059 175.998 47.1157 176.299 46.9527C176.599 46.8168 176.9 46.7353 177.255 46.7353C177.611 46.7353 177.966 46.8168 178.267 46.9798L178.294 47.007Z" fill="#121212"/>
<path d="M184.5 47.306C184.882 47.6592 185.074 48.2026 185.074 48.8819V51.7893H184.254V48.9906C184.254 48.5015 184.117 48.1211 183.871 47.8494C183.625 47.5777 183.297 47.469 182.859 47.469C182.422 47.469 182.067 47.6048 181.821 47.8766C181.575 48.1483 181.438 48.5287 181.438 49.0449V51.7893H180.618V46.844H181.438V47.5505C181.602 47.306 181.821 47.1158 182.094 46.9527C182.367 46.8169 182.695 46.7354 183.024 46.7354C183.625 46.7354 184.117 46.9256 184.5 47.2788V47.306Z" fill="#121212"/>
</svg>
