<svg width="20" height="20" viewBox="0 0 20 20" fill="none" xmlns="http://www.w3.org/2000/svg">
<path d="M5.525 5.73344L6.01667 5.94177C5.99167 6.13344 5.95833 6.33344 5.95833 6.53344C5.95833 6.79177 5.99167 7.04177 6.03333 7.28344L5.725 7.40844C5.3 7.58344 5.1 8.0751 5.275 8.5001C5.40833 8.81677 5.71667 9.01677 6.04167 9.01677C6.15 9.01677 6.25833 9.0001 6.35833 8.9501L6.66667 8.8251C6.95 9.24177 7.30833 9.6001 7.725 9.88344L7.6 10.1918C7.425 10.6168 7.625 11.1084 8.05 11.2834C8.15833 11.3251 8.26667 11.3501 8.36667 11.3501C8.69167 11.3501 9 11.1584 9.13333 10.8334L9.25833 10.5251C9.5 10.5668 9.75 10.6001 10.0083 10.6001C10.2667 10.6001 10.5083 10.5668 10.7583 10.5251L10.8833 10.8334C11.0167 11.1584 11.325 11.3501 11.65 11.3501C11.7583 11.3501 11.8667 11.3334 11.9667 11.2834C12.3917 11.1084 12.5917 10.6168 12.4167 10.1918L12.2917 9.88344C12.7083 9.6001 13.0667 9.24177 13.35 8.8251L13.6583 8.9501C13.7583 8.99177 13.8667 9.01677 13.975 9.01677C14.3 9.01677 14.6083 8.8251 14.7417 8.5001C14.9167 8.0751 14.7167 7.59177 14.2917 7.40844L13.9833 7.28344C14.025 7.04177 14.0583 6.79177 14.0583 6.53344C14.0583 6.33344 14.025 6.13344 14 5.94177L14.4917 5.73344C14.9167 5.55844 15.1167 5.06677 14.9417 4.64177C14.7667 4.21677 14.275 4.01677 13.85 4.19177L13.4167 4.36677C13.1333 3.91677 12.7667 3.5251 12.3333 3.21677L12.4917 2.83344C12.6667 2.40844 12.4667 1.91677 12.0417 1.74177C11.6167 1.56677 11.125 1.76677 10.95 2.19177L10.8 2.54177C10.5333 2.49177 10.2667 2.45844 9.99167 2.45844C9.71667 2.45844 9.44167 2.48344 9.175 2.54177L9.025 2.19177C8.85 1.76677 8.35833 1.56677 7.93333 1.74177C7.50833 1.91677 7.30833 2.40844 7.48333 2.83344L7.64167 3.21677C7.20833 3.5251 6.84167 3.91677 6.55833 4.36677L6.125 4.19177C5.7 4.01677 5.21667 4.21677 5.03333 4.64177C4.85833 5.06677 5.05833 5.55844 5.48333 5.73344H5.525ZM12.4167 6.53344C12.4167 7.8501 11.3417 8.9251 10.025 8.9251C8.70833 8.9251 7.63333 7.8501 7.63333 6.53344C7.63333 5.21677 8.70833 4.14177 10.025 4.14177C11.3417 4.14177 12.4167 5.21677 12.4167 6.53344Z" fill="#585858"/>
<path d="M15.4083 12.2583H4.59167C2.98333 12.2583 1.675 13.5666 1.675 15.175V15.4C1.675 17.0083 2.98333 18.3166 4.59167 18.3166H15.4167C17.025 18.3166 18.3333 17.0083 18.3333 15.4V15.175C18.3333 13.5666 17.025 12.2583 15.4167 12.2583H15.4083ZM16.6583 15.4083C16.6583 16.1 16.1 16.6583 15.4083 16.6583H4.59167C3.9 16.6583 3.34167 16.1 3.34167 15.4083V15.1833C3.34167 14.4916 3.9 13.9333 4.59167 13.9333H15.4167C16.1083 13.9333 16.6667 14.4916 16.6667 15.1833V15.4083H16.6583Z" fill="#585858"/>
<path d="M10.6583 14.6999C10.575 14.6249 10.4917 14.5666 10.3833 14.5249C10.2333 14.4583 10.0667 14.4416 9.90833 14.4749C9.85 14.4749 9.8 14.4999 9.75 14.5249C9.7 14.5416 9.65 14.5666 9.60833 14.5999C9.55833 14.6249 9.51667 14.6666 9.48333 14.6999C9.4 14.7833 9.34167 14.8666 9.3 14.9749C9.25833 15.0749 9.23333 15.1833 9.23333 15.2916C9.23333 15.5166 9.325 15.7249 9.48333 15.8833C9.63333 16.0416 9.84167 16.1249 10.0667 16.1249C10.2917 16.1249 10.5 16.0416 10.6583 15.8833C10.8167 15.7249 10.9 15.5166 10.9 15.2916C10.9 15.1833 10.875 15.0749 10.8333 14.9749C10.7917 14.8749 10.7333 14.7833 10.6583 14.6999Z" fill="#585858"/>
<path d="M5.34167 14.7C5.03333 14.3917 4.46667 14.3917 4.15833 14.7C4.08333 14.7833 4.025 14.875 3.975 14.975C3.94167 15.075 3.91667 15.1833 3.91667 15.2917C3.91667 15.5167 4 15.725 4.15833 15.8833C4.24167 15.9583 4.325 16.0167 4.425 16.0583C4.53333 16.1 4.63333 16.125 4.75 16.125C4.85833 16.125 4.96667 16.1 5.06667 16.0583C5.16667 16.0167 5.25833 15.9583 5.34167 15.8833C5.49167 15.725 5.58333 15.5167 5.58333 15.2917C5.58333 15.1833 5.55833 15.075 5.51667 14.975C5.475 14.875 5.41667 14.7833 5.34167 14.7Z" fill="#585858"/>
<path d="M15.85 14.525C15.8 14.4916 15.7583 14.4666 15.7083 14.45C15.65 14.425 15.6 14.4083 15.55 14.4C15.275 14.35 14.9917 14.4333 14.8 14.625C14.6417 14.7833 14.55 15 14.55 15.2166C14.55 15.4333 14.6417 15.65 14.8 15.8083C14.95 15.9666 15.1583 16.05 15.3833 16.05C15.6083 16.05 15.8167 15.9666 15.975 15.8083C16.1333 15.65 16.2167 15.4416 16.2167 15.2166C16.2167 14.9916 16.1333 14.7833 15.975 14.625C15.9333 14.5916 15.8917 14.5583 15.85 14.525Z" fill="#585858"/>
<path d="M13.3167 14.7C13.2417 14.625 13.15 14.5666 13.0417 14.525C12.7417 14.3916 12.3667 14.4666 12.1333 14.7C12.0583 14.7833 12 14.875 11.9583 14.975C11.9167 15.075 11.8917 15.1833 11.8917 15.2916C11.8917 15.5166 11.9833 15.725 12.1333 15.8833C12.2167 15.9583 12.3083 16.0166 12.4083 16.0583C12.5083 16.1 12.6167 16.125 12.725 16.125C12.95 16.125 13.1583 16.0416 13.3167 15.8833C13.475 15.725 13.5583 15.5166 13.5583 15.2916C13.5583 15.1833 13.5417 15.075 13.4917 14.975C13.45 14.875 13.3917 14.7833 13.3167 14.7Z" fill="#585858"/>
<path d="M8 14.7C7.76667 14.4666 7.39167 14.3916 7.09167 14.525C6.98333 14.5666 6.89167 14.625 6.81667 14.7C6.74167 14.7833 6.68333 14.875 6.64167 14.975C6.6 15.075 6.575 15.1833 6.575 15.2916C6.575 15.5166 6.65833 15.725 6.81667 15.8833C6.975 16.0416 7.18333 16.125 7.40833 16.125C7.63333 16.125 7.84167 16.0416 8 15.8833C8.15833 15.725 8.24167 15.5166 8.24167 15.2916C8.24167 15.1833 8.21667 15.075 8.175 14.975C8.13333 14.875 8.075 14.7833 8 14.7Z" fill="#585858"/>
</svg>
