<svg width="16" height="16" viewBox="0 0 16 16" fill="none" xmlns="http://www.w3.org/2000/svg">
<path d="M9.5486 15.6277L15.6435 8.91893L15.6856 8.87258C15.868 8.65941 15.9789 8.3829 15.9971 8.09095C16.0028 8.00599 15.9999 7.91948 15.9901 7.83452C15.9607 7.58582 15.8666 7.35565 15.7179 7.16719C15.6982 7.14248 15.6772 7.11776 15.6575 7.09614L9.5486 0.371895C9.09812 -0.123965 8.36555 -0.123965 7.91507 0.371895C7.46458 0.867756 7.46458 1.67411 7.91507 2.16997L12.0564 6.72849L1.15498 6.72849C0.517846 6.72849 -3.19027e-07 7.2985 -3.49683e-07 7.99981C-3.80338e-07 8.70112 0.517846 9.27112 1.15498 9.27112L12.0578 9.27112L7.91647 13.8296C7.69895 14.0706 7.57826 14.3888 7.57826 14.7287C7.57825 15.0685 7.69895 15.3867 7.91647 15.6277C8.13399 15.8672 8.42449 16 8.73324 16C9.04198 16 9.33108 15.8672 9.55001 15.6277L9.5486 15.6277Z" fill="#00599A"/>
</svg>
