<svg width="23" height="20" viewBox="0 0 23 20" fill="none" xmlns="http://www.w3.org/2000/svg">
<g clip-path="url(#clip0_1340_4861)">
<path fill-rule="evenodd" clip-rule="evenodd" d="M10.7723 2.74406C10.9286 2.90034 11.0164 3.11224 11.0164 3.33325V3.48381C11.0169 3.92221 11.1331 4.35343 11.3525 4.73299C11.5718 5.11225 11.8871 5.42696 12.2664 5.64608L12.6229 5.8536L12.6253 5.85523C13.0053 6.07451 13.4366 6.1897 13.8753 6.1897C14.314 6.18964 14.7446 6.07373 15.1245 5.85441L15.2254 5.80151C15.2335 5.79718 15.2419 5.79309 15.2498 5.78849C15.441 5.67821 15.6681 5.64846 15.8813 5.70549C16.0946 5.76252 16.2769 5.90102 16.3875 6.09204L16.5706 6.40942C16.6802 6.60027 16.7096 6.82665 16.6528 7.03931C16.5958 7.25257 16.4565 7.43485 16.2655 7.54549L16.2549 7.552L16.1296 7.62687C15.7534 7.84683 15.441 8.16124 15.2238 8.53914C15.0049 8.92012 14.8906 9.35222 14.8918 9.79159V10.205C14.89 10.6455 15.0043 11.0788 15.2238 11.4607C15.4433 11.8426 15.7603 12.16 16.1418 12.3803C16.1455 12.3824 16.1492 12.3845 16.153 12.3864C16.1574 12.3887 16.1618 12.391 16.1662 12.3933L16.2655 12.4462C16.4564 12.5568 16.5958 12.7384 16.6528 12.9516C16.7027 13.1381 16.686 13.3354 16.6073 13.5098L16.5698 13.5839L16.5658 13.5904L16.3875 13.907C16.2769 14.098 16.0946 14.2373 15.8813 14.2944C15.6681 14.3514 15.441 14.3216 15.2498 14.2113L15.1253 14.1446C14.7454 13.9252 14.3141 13.8102 13.8753 13.8101C13.4366 13.8101 13.0053 13.9253 12.6253 14.1446L12.6229 14.1462L12.2664 14.3529C11.8869 14.5721 11.5719 14.8875 11.3525 15.2668C11.1331 15.6464 11.0169 16.0776 11.0164 16.516V16.6666C11.0164 16.8876 10.9286 17.0995 10.7723 17.2558C10.616 17.412 10.4041 17.4999 10.1831 17.4999H9.81689C9.59593 17.4999 9.38397 17.412 9.2277 17.2558C9.07142 17.0995 8.98356 16.8876 8.98356 16.6666V16.516C8.98311 16.0776 8.86686 15.6464 8.64746 15.2668C8.42807 14.8875 8.11229 14.5721 7.73274 14.3529L7.37711 14.1462L7.37467 14.1446C6.99471 13.9253 6.56337 13.8101 6.12467 13.8101C5.68594 13.8102 5.25462 13.9252 4.87467 14.1446L4.77457 14.1983C4.77186 14.1998 4.76913 14.2012 4.7664 14.2026C4.76094 14.2054 4.75547 14.2083 4.75016 14.2113C4.55895 14.3216 4.33189 14.3514 4.11865 14.2944C3.90539 14.2373 3.72229 14.098 3.61165 13.907L3.42936 13.5904C3.31978 13.3996 3.29038 13.1732 3.34717 12.9605C3.40419 12.7473 3.54351 12.565 3.73454 12.4543C3.73656 12.4532 3.73854 12.4519 3.74053 12.4507C3.74205 12.4497 3.74357 12.4488 3.74511 12.4478L3.86963 12.3722C4.24585 12.1522 4.55897 11.8387 4.7762 11.4607C4.96831 11.1264 5.07961 10.7527 5.10335 10.3694L5.10823 10.205V9.77856C5.1056 9.34228 4.98898 8.91388 4.76969 8.5367C4.55924 8.17473 4.26145 7.87282 3.90381 7.65617L3.77929 7.57316L3.73454 7.54549L3.66536 7.50073C3.50988 7.38887 3.39708 7.22596 3.34717 7.03931C3.29038 6.82665 3.31978 6.60027 3.42936 6.40942L3.61247 6.09285C3.72311 5.90183 3.90539 5.76252 4.11865 5.70549C4.33189 5.64846 4.55895 5.67821 4.75016 5.78849C4.75547 5.79155 4.76093 5.79439 4.76638 5.79722C4.76912 5.79864 4.77186 5.80006 4.77457 5.80151L4.87467 5.85523C5.25463 6.07459 5.68594 6.18964 6.12467 6.1897C6.56337 6.1897 6.99471 6.07451 7.37467 5.85523L7.37711 5.8536L7.73274 5.64608L7.73356 5.64689C8.11308 5.42776 8.42808 5.11237 8.64746 4.73299C8.86686 4.35343 8.98311 3.92221 8.98356 3.48381V3.33325C8.98356 3.11224 9.07142 2.90034 9.2277 2.74406C9.38397 2.58785 9.59593 2.49992 9.81689 2.49992H10.1831C10.4041 2.49992 10.616 2.58785 10.7723 2.74406ZM12.7954 3.89884C12.7223 3.77233 12.6833 3.62831 12.6831 3.48218V3.33325C12.6831 2.67035 12.4202 2.03449 11.9515 1.56567C11.4827 1.09683 10.8461 0.833252 10.1831 0.833252H9.81689C9.15385 0.833252 8.51734 1.09683 8.0485 1.56567C7.57984 2.03449 7.31689 2.67035 7.31689 3.33325V3.48299C7.31664 3.62892 7.27762 3.7725 7.20459 3.89884C7.14969 3.99372 7.07698 4.07671 6.99056 4.14299L6.89778 4.20483L6.54134 4.41154C6.41471 4.48459 6.27086 4.52303 6.12467 4.52303C5.9785 4.52297 5.83459 4.48463 5.708 4.41154C5.70651 4.41068 5.70501 4.40981 5.70351 4.40894C5.69693 4.40513 5.69023 4.40125 5.68359 4.39771L5.55908 4.33097L5.55827 4.33179C4.98974 4.01225 4.3189 3.92634 3.68815 4.09497C3.04838 4.26605 2.50235 4.68403 2.17041 5.25708L1.9873 5.57365L1.98649 5.57528C1.65567 6.14881 1.56573 6.83016 1.73665 7.46981C1.9032 8.09264 2.305 8.62579 2.85482 8.95988L2.97933 9.04289C2.99416 9.05277 3.00947 9.06246 3.0249 9.07137C3.15071 9.144 3.25536 9.24856 3.32845 9.37411C3.3833 9.46845 3.41951 9.57266 3.43424 9.68009L3.44157 9.78833V10.2115C3.44215 10.3583 3.40397 10.5025 3.33089 10.6298C3.25772 10.7571 3.15207 10.8632 3.0249 10.9366L2.88818 11.0188C2.32073 11.3513 1.90664 11.8943 1.73665 12.53C1.56572 13.1697 1.65567 13.851 1.98649 14.4246L1.9873 14.4254L2.17041 14.7428C2.50235 15.3158 3.04838 15.7338 3.68815 15.9049C4.31903 16.0735 4.98967 15.9869 5.55827 15.6672L5.55908 15.6689L5.68359 15.6021C5.69175 15.5978 5.7 15.5929 5.708 15.5883C5.83459 15.5152 5.97851 15.4769 6.12467 15.4768C6.27073 15.4768 6.4148 15.5146 6.54134 15.5875L6.89778 15.795L6.99056 15.8569C7.07698 15.9231 7.14969 16.0061 7.20459 16.101C7.25945 16.1959 7.29523 16.3006 7.30957 16.4086L7.31689 16.5177V16.6666C7.31689 17.3295 7.57984 17.9654 8.0485 18.4342C8.51734 18.903 9.15385 19.1666 9.81689 19.1666H10.1831C10.8461 19.1666 11.4827 18.903 11.9515 18.4342C12.4202 17.9654 12.6831 17.3295 12.6831 16.6666V16.5177C12.6833 16.3715 12.7223 16.2275 12.7954 16.101C12.8503 16.0061 12.923 15.9231 13.0094 15.8569L13.1022 15.795L13.4578 15.5875L13.4587 15.5883C13.5853 15.5152 13.7291 15.4768 13.8753 15.4768C14.0215 15.4769 14.1654 15.5152 14.292 15.5883C14.3 15.5929 14.3082 15.5978 14.3164 15.6021L14.4409 15.6689V15.6672C15.0096 15.9872 15.6807 16.0736 16.3118 15.9049C16.9516 15.7338 17.4976 15.3158 17.8296 14.7428L17.8345 14.7346L18.0176 14.4091L18.0168 14.4083C18.3442 13.8362 18.4337 13.1581 18.2633 12.5211C18.0923 11.8815 17.6741 11.3361 17.1012 11.0042C17.0928 10.9993 17.0838 10.9941 17.0752 10.9895L16.9678 10.9317C16.8439 10.8585 16.7408 10.7546 16.6691 10.6298C16.596 10.5025 16.5578 10.3583 16.5584 10.2115V9.78833C16.5578 9.64158 16.596 9.49729 16.6691 9.37004C16.7423 9.24272 16.8479 9.13665 16.9751 9.06323L16.9873 9.05591L17.1118 8.98104L17.111 8.98022C17.6786 8.64771 18.0933 8.10561 18.2633 7.46981C18.4343 6.83016 18.3443 6.14881 18.0135 5.57528L18.0127 5.57446L17.8296 5.25708L17.6953 5.04956C17.3597 4.58335 16.8716 4.24466 16.3118 4.09497C15.6809 3.92628 15.0096 4.01115 14.4409 4.33097L14.3164 4.39771L14.292 4.41154C14.1654 4.48463 14.0215 4.52297 13.8753 4.52303C13.729 4.52303 13.5845 4.48468 13.4578 4.41154L13.1022 4.20483L13.0094 4.14299C12.923 4.07671 12.8503 3.99372 12.7954 3.89884Z" fill="#585858"/>
<path fill-rule="evenodd" clip-rule="evenodd" d="M13.3333 9.99992C13.3333 11.8409 11.8409 13.3333 10 13.3333C8.15905 13.3333 6.66666 11.8409 6.66666 9.99992C6.66666 8.15897 8.15905 6.66659 10 6.66659C11.8409 6.66659 13.3333 8.15897 13.3333 9.99992ZM10 8.33325C10.9205 8.33325 11.6667 9.07944 11.6667 9.99992C11.6667 10.9204 10.9205 11.6666 10 11.6666C9.07952 11.6666 8.33333 10.9204 8.33333 9.99992C8.33333 9.07944 9.07952 8.33325 10 8.33325Z" fill="#585858"/>
</g>
<defs>
<clipPath id="clip0_1340_4861">
<rect width="20" height="20" fill="white"/>
</clipPath>
</defs>
</svg>
