<svg width="20" height="20" viewBox="0 0 20 20" fill="none" xmlns="http://www.w3.org/2000/svg">
<path d="M16.6667 5.83325H3.33333V16.6666C3.33333 16.8876 3.42119 17.0995 3.57747 17.2558C3.73375 17.4121 3.94565 17.4999 4.16667 17.4999H15.8333C16.0543 17.4999 16.2662 17.4121 16.4225 17.2558C16.5788 17.0995 16.6667 16.8876 16.6667 16.6666V5.83325ZM5.83333 8.33325C5.83333 7.87301 6.20643 7.49992 6.66667 7.49992C7.1269 7.49992 7.5 7.87301 7.5 8.33325C7.5 8.99629 7.76358 9.63199 8.23242 10.1008C8.70126 10.5697 9.33696 10.8333 10 10.8333L10.2474 10.821C10.8196 10.7642 11.3574 10.511 11.7676 10.1008C12.2364 9.63199 12.5 8.99629 12.5 8.33325C12.5 7.87301 12.8731 7.49992 13.3333 7.49992C13.7936 7.49992 14.1667 7.87301 14.1667 8.33325C14.1667 9.43832 13.7274 10.4978 12.946 11.2792C12.2134 12.0118 11.2365 12.4439 10.2067 12.495L10 12.4999C8.89493 12.4999 7.83544 12.0606 7.05404 11.2792C6.27263 10.4978 5.83333 9.43832 5.83333 8.33325ZM4.16585 4.16659H15.8341L14.5841 2.49992H5.41585L4.16585 4.16659ZM18.3333 16.6666C18.3333 17.3296 18.0698 17.9653 17.6009 18.4342C17.1321 18.903 16.4964 19.1666 15.8333 19.1666H4.16667C3.50362 19.1666 2.86793 18.903 2.39909 18.4342C1.93025 17.9653 1.66667 17.3296 1.66667 16.6666V4.99992C1.66667 4.81966 1.72537 4.64447 1.8335 4.50024L4.3335 1.16691L4.39616 1.09204C4.55246 0.927744 4.77043 0.833252 5 0.833252H15C15.2623 0.833252 15.5091 0.957073 15.6665 1.16691L18.1665 4.50024C18.2746 4.64447 18.3333 4.81966 18.3333 4.99992V16.6666Z" fill="#585858"/>
</svg>
