<svg width="20" height="20" viewBox="0 0 20 20" fill="none" xmlns="http://www.w3.org/2000/svg">
<path d="M5.00016 17.5002C5.00016 16.5797 5.74636 15.8335 6.66683 15.8335C7.58723 15.8336 8.3335 16.5797 8.3335 17.5002C8.33341 18.4205 7.58718 19.1667 6.66683 19.1668C5.74641 19.1668 5.00025 18.4206 5.00016 17.5002ZM14.1668 17.5002C14.1668 16.5797 14.913 15.8335 15.8335 15.8335C16.7539 15.8336 17.5002 16.5797 17.5002 17.5002C17.5001 18.4205 16.7538 19.1667 15.8335 19.1668C14.9131 19.1668 14.1669 18.4206 14.1668 17.5002ZM3.375 0.875L3.44824 0.878255C3.80955 0.90992 4.11248 1.17401 4.18962 1.53418L4.94076 5.04167H18.4084C18.6611 5.04168 18.9004 5.15622 19.0586 5.35335C19.2167 5.55047 19.2769 5.80896 19.2222 6.05566L17.8468 12.2471L17.846 12.2463C17.7236 12.8016 17.4166 13.2991 16.9736 13.6558C16.5305 14.0126 15.9785 14.2074 15.4095 14.2083H7.25846V14.2075C6.68353 14.2161 6.12304 14.0271 5.67155 13.6704C5.21529 13.31 4.89918 12.8017 4.77718 12.2332L3.45719 6.07275C3.45295 6.05531 3.44893 6.03772 3.4458 6.01986L2.70117 2.54167H1.70833C1.2481 2.54167 0.875 2.16857 0.875 1.70833C0.875 1.2481 1.2481 0.875 1.70833 0.875H3.375ZM6.40641 11.8833C6.44707 12.0728 6.55298 12.2425 6.70508 12.3626C6.85713 12.4827 7.04607 12.546 7.23975 12.5417H15.4071C15.5965 12.5413 15.7803 12.4765 15.9279 12.3577C16.0756 12.2388 16.1785 12.0726 16.2192 11.8874L16.2201 11.8857L17.3691 6.70833H5.29801L6.40641 11.8833Z" fill="#585858"/>
</svg>
