<svg width="20" height="20" viewBox="0 0 20 20" fill="none" xmlns="http://www.w3.org/2000/svg">
<path d="M17.5 11.1263L17.4992 11.1255L14.5996 7.50081L14.5988 7.5H12.5V13.1396C12.9425 12.743 13.5256 12.5 14.1667 12.5C15.2549 12.5 16.1784 13.1961 16.5218 14.1667H17.5V11.1263ZM5.83333 14.1667C5.3731 14.1667 5 14.5398 5 15C5 15.4602 5.3731 15.8333 5.83333 15.8333C6.29357 15.8333 6.66667 15.4602 6.66667 15C6.66667 14.5398 6.29357 14.1667 5.83333 14.1667ZM14.1667 14.1667C13.7064 14.1667 13.3333 14.5398 13.3333 15C13.3333 15.4602 13.7064 15.8333 14.1667 15.8333C14.6269 15.8333 15 15.4602 15 15C15 14.5398 14.6269 14.1667 14.1667 14.1667ZM10.8333 5C10.8333 4.77899 10.7455 4.56709 10.5892 4.41081C10.4524 4.27402 10.273 4.18964 10.0822 4.17074L10 4.16667H3.33333C3.11232 4.16667 2.90042 4.25453 2.74414 4.41081C2.58786 4.56709 2.5 4.77899 2.5 5V14.1667H3.47819C3.82162 13.1961 4.74512 12.5 5.83333 12.5C6.92154 12.5 7.84505 13.1961 8.18848 14.1667H10.8333V5ZM12.5 5.83333H14.6012C14.8509 5.8337 15.0973 5.89016 15.3223 5.99854C15.5469 6.10681 15.7443 6.26444 15.9001 6.45915L18.7996 10.0838L18.8835 10.1978C19.0667 10.4707 19.1661 10.793 19.1667 11.1239V14.1667C19.1667 14.6087 18.9909 15.0325 18.6784 15.3451C18.3658 15.6576 17.942 15.8333 17.5 15.8333H16.5218C16.1784 16.8039 15.2549 17.5 14.1667 17.5C13.0785 17.5 12.155 16.8039 11.8115 15.8333H8.18848C7.84505 16.8039 6.92154 17.5 5.83333 17.5C4.74512 17.5 3.82162 16.8039 3.47819 15.8333H2.5C2.05797 15.8333 1.63418 15.6576 1.32161 15.3451C1.00905 15.0325 0.833332 14.6087 0.833332 14.1667V5C0.833332 4.33696 1.09691 3.70126 1.56575 3.23242C2.0346 2.76358 2.67029 2.5 3.33333 2.5H10C10.663 2.5 11.2987 2.76358 11.7676 3.23242C12.2364 3.70126 12.5 4.33696 12.5 5V5.83333Z" fill="#585858"/>
</svg>
