<svg width="13" height="13" viewBox="0 0 13 13" fill="none" xmlns="http://www.w3.org/2000/svg">
<path d="M7.49988 13C7.44238 13 7.38571 12.99 7.32988 12.97L4.66321 12.0075C4.46488 11.9358 4.33321 11.7475 4.33321 11.5375V6.9875L0.0873812 0.7825C-0.0176188 0.629167 -0.028452 0.430833 0.0573813 0.266667C0.144048 0.1025 0.314048 0 0.499881 0H11.8332C12.019 0 12.189 0.1025 12.2757 0.266667C12.3624 0.430833 12.3507 0.629167 12.2457 0.7825L7.99988 6.98833V12.5C7.99988 12.6625 7.92071 12.8158 7.78738 12.9092C7.70238 12.9692 7.60155 13 7.49988 13ZM5.33321 11.1867L6.99988 11.7883V6.83333C6.99988 6.7325 7.03071 6.63417 7.08738 6.55083L10.8857 1H1.44821L5.24655 6.55083C5.30321 6.63417 5.33405 6.7325 5.33405 6.83333V11.1867H5.33321Z" fill="#585858"/>
</svg>
