<svg width="16" height="16" viewBox="0 0 16 16" fill="none" xmlns="http://www.w3.org/2000/svg">
<path d="M15.4948 14.3833L10.7896 9.67813C11.5937 8.63125 12.0354 7.33854 12.0354 6.01771C12.0354 2.7 9.33646 0 6.01771 0C2.69896 0 0 2.69896 0 6.01771C0 9.33646 2.69896 12.0354 6.01771 12.0354C7.32812 12.0354 8.6125 11.6 9.65521 10.8073L14.3635 15.5156C14.5146 15.6667 14.7156 15.75 14.9292 15.75C15.1427 15.75 15.3437 15.6667 15.4948 15.5156C15.6458 15.3646 15.7292 15.1635 15.7292 14.95C15.7292 14.7365 15.6458 14.5354 15.4948 14.3844V14.3833ZM6.01771 10.4354C3.58229 10.4354 1.6 8.45417 1.6 6.01771C1.6 3.58125 3.58125 1.6 6.01771 1.6C8.45417 1.6 10.4354 3.58125 10.4354 6.01771C10.4354 8.45417 8.45417 10.4354 6.01771 10.4354Z" fill="#909090"/>
</svg>
